<?xml version="1.0" encoding="UTF-8" standalone="no"?> <svg xmlns="http://www.w3.org/2000/svg" viewBox="0 0 32 32"><title>Mall</title><g id="Mall_Shop" data-name="Mall/Shop"><path d="M10,20H23.438a3,3,0,0,0,2.911-2.272L28.66,8.484A2,2,0,0,0,26.719,6h-19L7.4,5.051A3,3,0,0,0,4.559,3H3A1,1,0,0,0,3,5H4.559a1,1,0,0,1,.949.684l.534,1.6c.006.019.012.037.019.054l3.565,10.7a2.984,2.984,0,0,0-.657,5.768A3,3,0,1,0,13.22,24h7.56a3,3,0,1,0,4.44,0H25.7a1,1,0,0,0,0-2H10a1,1,0,0,1,0-2Zm9.58-8-.166,2H16.18l-.333-2Zm-4.066-2L15.18,8h4.734l-.167,2Zm9.706,4h-3.8l.166-2H25.72Zm-8.373,4-.333-2h2.733l-.167,2Zm-2.694-4H10.388l-.667-2h4.1Zm.333,2,.334,2h-3.1l-.667-2Zm8.952,2H21.086l.167-2H24.72l-.311,1.242A1,1,0,0,1,23.438,18ZM26.72,8l-.5,2H21.753l.167-2ZM13.153,8l.333,2H9.054L8.388,8ZM23,27a1,1,0,1,1,1-1A1,1,0,0,1,23,27ZM11,27a1,1,0,1,1,1-1A1,1,0,0,1,11,27Z"/></g></svg>